<svg width="480" height="384" viewBox="0 0 480 384" fill="none" xmlns="http://www.w3.org/2000/svg">
<path d="M32 272L448 272C456.837 272 464 264.837 464 256L464 32C464 23.1634 456.837 16 448 16L32 16C23.1635 16 16 23.1634 16 32L16 256C16 264.837 23.1635 272 32 272Z" stroke="#742AFF" stroke-width="32" stroke-linejoin="round"/>
<path d="M48 320H432M80 368H400" stroke="#742AFF" stroke-width="32" stroke-linecap="round" stroke-linejoin="round"/>
<path d="M464 96C442.783 96 422.434 87.5715 407.431 72.5685C392.429 57.5656 384 37.2173 384 16M16 96C26.5057 96 36.9086 93.9307 46.6147 89.9104C56.3207 85.89 65.1399 79.9972 72.5685 72.5685C79.9972 65.1399 85.89 56.3207 89.9104 46.6147C93.9307 36.9086 96 26.5057 96 16M464 192C442.783 192 422.434 200.429 407.431 215.431C392.429 230.434 384 250.783 384 272M16 192C26.5057 192 36.9086 194.069 46.6147 198.09C56.3207 202.11 65.1399 208.003 72.5685 215.431C79.9972 222.86 85.89 231.679 89.9104 241.385C93.9307 251.091 96 261.494 96 272" stroke="#742AFF" stroke-width="32" stroke-linecap="round" stroke-linejoin="round"/>
<path d="M240 224C284.183 224 320 188.183 320 144C320 99.8172 284.183 64 240 64C195.817 64 160 99.8172 160 144C160 188.183 195.817 224 240 224Z" stroke="#742AFF" stroke-width="32" stroke-linecap="round" stroke-linejoin="round"/>
</svg>
