<svg width="448" height="448" viewBox="0 0 448 448" fill="none" xmlns="http://www.w3.org/2000/svg">
<path d="M34.46 200C21.3443 223.562 14.9996 250.293 16.1273 277.236C17.255 304.179 25.8112 330.286 40.85 352.67C43.16 356.16 44.46 358.86 44.06 360.67C43.66 362.48 32.13 422.54 32.13 422.54C31.8527 423.946 31.9579 425.4 32.4346 426.751C32.9113 428.102 33.742 429.3 34.84 430.22C36.3051 431.387 38.1268 432.016 40 432C41.001 432.003 41.9917 431.798 42.91 431.4L99.12 409.4C102.989 407.875 107.304 407.947 111.12 409.6C130.06 416.98 151 421.6 171.95 421.6C200.063 421.63 227.682 414.215 252 400.11" stroke="#742AFF" stroke-width="32" stroke-miterlimit="10" stroke-linecap="round"/>
<path d="M399 288.6C398 285 400.2 280 402.3 276.4C402.942 275.329 403.643 274.294 404.4 273.3C422.363 246.608 431.971 215.173 432 183C432.3 90.8 354.5 16 258.3 16C174.4 16 104.4 73.1 88 148.9C85.5466 160.135 84.3061 171.6 84.3 183.1C84.3 275.4 159.1 352.2 255.3 352.2C270.6 352.2 291.2 347.6 302.5 344.5C313.8 341.4 325 337.3 327.9 336.2C330.873 335.079 334.023 334.503 337.2 334.5C340.666 334.487 344.1 335.167 347.3 336.5L404 356.6C405.243 357.126 406.557 357.463 407.9 357.6C410.022 357.6 412.057 356.757 413.557 355.257C415.057 353.757 415.9 351.722 415.9 349.6C415.83 348.685 415.663 347.78 415.4 346.9L399 288.6Z" stroke="#742AFF" stroke-width="32" stroke-miterlimit="10" stroke-linecap="round"/>
</svg>
