<svg width="481" height="320" viewBox="0 0 481 320" fill="none" xmlns="http://www.w3.org/2000/svg">
<path d="M240 240C284.183 240 320 204.183 320 160C320 115.817 284.183 80 240 80C195.817 80 160 115.817 160 160C160 204.183 195.817 240 240 240Z" stroke="#742AFF" stroke-width="32" stroke-miterlimit="10"/>
<path d="M239.66 16C161.72 16 81.77 61.11 18.83 151.33C17.0335 153.934 16.049 157.011 16.0009 160.174C15.9528 163.337 16.8434 166.443 18.56 169.1C66.92 244.8 145.8 304 239.66 304C332.5 304 413 244.62 461.45 168.75C463.127 166.145 464.018 163.113 464.018 160.015C464.018 156.917 463.127 153.885 461.45 151.28C412.89 76.28 331.8 16 239.66 16Z" stroke="#742AFF" stroke-width="32" stroke-linecap="round" stroke-linejoin="round"/>
</svg>
