<svg width="353" height="200" viewBox="0 0 353 200" fill="none" xmlns="http://www.w3.org/2000/svg">
<rect width="200" height="200" rx="100" fill="#EDEDED"/>
<path d="M161.333 156.667C166.222 166 168.667 200 168.667 200H31.3335C31.3335 200 33.7782 166 38.6668 156.667C46.0002 142.667 100 124.667 100 124.667C100 124.667 154 142.667 161.333 156.667Z" fill="url(#paint0_linear_302_78)"/>
<path d="M97.3335 184C97.3335 183.473 97.4899 182.957 97.7829 182.518C98.0759 182.08 98.4924 181.738 98.9797 181.536C99.4669 181.334 100.003 181.282 100.52 181.385C101.038 181.487 101.513 181.741 101.886 182.114C102.259 182.487 102.513 182.962 102.616 183.48C102.718 183.997 102.666 184.533 102.464 185.02C102.262 185.508 101.92 185.924 101.482 186.217C101.043 186.51 100.528 186.667 100 186.667C99.2929 186.667 98.6146 186.386 98.1145 185.886C97.6144 185.385 97.3335 184.707 97.3335 184ZM97.3335 170.667C97.3335 170.139 97.4899 169.624 97.7829 169.185C98.0759 168.747 98.4924 168.405 98.9797 168.203C99.4669 168.001 100.003 167.948 100.52 168.051C101.038 168.154 101.513 168.408 101.886 168.781C102.259 169.154 102.513 169.629 102.616 170.146C102.718 170.664 102.666 171.2 102.464 171.687C102.262 172.174 101.92 172.591 101.482 172.884C101.043 173.177 100.528 173.333 100 173.333C99.2929 173.333 98.6146 173.052 98.1145 172.552C97.6144 172.052 97.3335 171.374 97.3335 170.667ZM97.3335 157.333C97.3335 156.806 97.4899 156.29 97.7829 155.852C98.0759 155.413 98.4924 155.071 98.9797 154.87C99.4669 154.668 100.003 154.615 100.52 154.718C101.038 154.821 101.513 155.075 101.886 155.448C102.259 155.821 102.513 156.296 102.616 156.813C102.718 157.33 102.666 157.867 102.464 158.354C102.262 158.841 101.92 159.258 101.482 159.551C101.043 159.844 100.528 160 100 160C99.2929 160 98.6146 159.719 98.1145 159.219C97.6144 158.719 97.3335 158.041 97.3335 157.333Z" fill="white"/>
<path d="M156.981 116.941L48.6761 103.852C43.3365 75.5062 49.6699 57.6469 67.6761 50.274C76.0001 23 108.398 25.2187 117.581 27.442C148.832 35.0091 161.965 64.842 156.981 116.941Z" fill="url(#paint1_linear_302_78)"/>
<path d="M84.0001 132.667V92.6667C67.3194 92.4174 70.5727 63.5121 87.3334 72.3334C90.3334 73.6667 98.0001 70.0001 95.3334 61.0001C113.333 74.3334 138.416 50.9334 140 65.3334C143.117 93.6741 137.086 116.968 121.095 116.969C119.391 117.034 117.684 116.933 116 116.667V132.667C110.78 135.778 105.56 137.333 100.34 137.333C95.1201 137.333 89.6734 135.778 84.0001 132.667Z" fill="#FFDBC9"/>
<path d="M116 116.667V122C106 122 98.2225 117.222 92.667 107.667C99.3337 112.111 107.111 115.111 116 116.667Z" fill="#FFBC9E"/>
<path d="M99.9782 136.65C104.539 136.432 116 134.072 116 128.973V124.667C117.223 124.667 120.724 127.555 122.524 130C129.642 139.667 121.747 148.333 115.308 148.333C107.184 148.333 101.8 141.545 100 138.28C98.2002 141.547 92.8162 148.333 84.6922 148.333C78.2536 148.333 70.3589 139.667 77.4762 130C79.2769 127.555 82.7776 124.667 84.0002 124.667V128.973C84.0002 134.072 95.1602 136.432 99.9782 136.65Z" fill="white"/>
<g clip-path="url(#clip0_302_78)">
<rect x="153" width="200" height="200" rx="100" fill="#EDEDED"/>
<path d="M231.666 125.856V126.143C231.587 132.222 226.476 136.793 216.333 139.856C228.555 148.745 240.778 155.856 253 155.856C265.222 155.856 277.444 148.745 289.666 139.856C279.592 136.789 274.481 132.212 274.333 126.123C274.333 125.037 274.341 123.496 274.348 120.602C274.348 120.142 274.35 119.672 274.352 119.19C275.08 119.293 275.018 119.227 274.352 119.042C274.372 111.429 274.404 101.193 274.45 90.7893C284.004 78.4046 280.494 63.8853 277.5 64.2473C273.83 64.6946 242.028 34.516 235.928 32.9686C229.828 31.4213 214.333 36.4166 211.666 50.3333C209 64.25 207.885 99.3286 218 113.333C220.878 117.319 225.411 118.878 231.6 118.01C231.608 120.923 231.626 122.557 231.666 125.856Z" fill="url(#paint2_linear_302_78)"/>
<path d="M231.667 118C246.333 116.333 255.667 110 255.667 110C255.667 110 245.573 123.411 231.667 126V118Z" fill="#FFBE94"/>
<path d="M279.333 91C283.927 79.9533 302.333 57.4553 286.467 43.4553C281.133 17.4553 251.667 20.3333 232 26.3333C218.782 30.366 208.8 38.3333 206.667 32.3333C193.333 43.4553 200.011 54.3333 208.8 57.4553C216.777 60.2886 230.267 63.122 253.204 60.4553C257.301 59.9786 256.443 72.5273 258.633 73.884C261.917 75.9193 264.467 63.122 273.472 66.9646C282.477 70.8073 277.133 88.6246 267.467 88.6246C264.133 88.6246 262.467 97.7893 271.467 102.123C278 105.333 276.349 98.178 279.333 91Z" fill="url(#paint3_linear_302_78)"/>
<path d="M323 160.205C329.347 173.11 333 202.872 333 202.872H173C173 202.872 176.655 173.107 183 160.205C189.345 147.304 226.4 135.338 226.4 135.338C233.542 150 272.739 150 279.581 135.333C279.581 135.333 316.653 147.301 323 160.205Z" fill="url(#paint4_linear_302_78)"/>
<mask id="mask0_302_78" style="mask-type:alpha" maskUnits="userSpaceOnUse" x="173" y="135" width="160" height="68">
<path d="M323 160.205C329.347 173.11 333 202.872 333 202.872H173C173 202.872 176.655 173.107 183 160.205C189.345 147.304 226.4 135.338 226.4 135.338C233.542 150 272.739 150 279.581 135.333C279.581 135.333 316.653 147.301 323 160.205Z" fill="url(#paint5_linear_302_78)"/>
</mask>
<g mask="url(#mask0_302_78)">
<path d="M166.333 189.333V184H339.667V189.333H166.333ZM166.333 176V170.667H339.667V176H166.333ZM166.333 162.667V157.333H339.667V162.667H166.333Z" fill="url(#paint6_linear_302_78)"/>
</g>
</g>
<defs>
<linearGradient id="paint0_linear_302_78" x1="100" y1="124.667" x2="100" y2="200" gradientUnits="userSpaceOnUse">
<stop stop-color="#1D0024"/>
<stop offset="1" stop-color="#100014"/>
</linearGradient>
<linearGradient id="paint1_linear_302_78" x1="102.427" y1="116.941" x2="102.427" y2="26.222" gradientUnits="userSpaceOnUse">
<stop stop-color="#E6864E"/>
<stop offset="1" stop-color="#E67240"/>
</linearGradient>
<linearGradient id="paint2_linear_302_78" x1="249.748" y1="32.698" x2="249.748" y2="155.856" gradientUnits="userSpaceOnUse">
<stop stop-color="#FFD4B3"/>
<stop offset="1" stop-color="#FFDCC2"/>
</linearGradient>
<linearGradient id="paint3_linear_302_78" x1="245.96" y1="102.912" x2="245.96" y2="22.2585" gradientUnits="userSpaceOnUse">
<stop stop-color="#E6864E"/>
<stop offset="1" stop-color="#E67240"/>
</linearGradient>
<linearGradient id="paint4_linear_302_78" x1="253" y1="202.872" x2="253" y2="135.333" gradientUnits="userSpaceOnUse">
<stop stop-color="#E6864E"/>
<stop offset="1" stop-color="#E67240"/>
</linearGradient>
<linearGradient id="paint5_linear_302_78" x1="253" y1="202.872" x2="253" y2="135.333" gradientUnits="userSpaceOnUse">
<stop stop-color="#E6864E"/>
<stop offset="1" stop-color="#E67240"/>
</linearGradient>
<linearGradient id="paint6_linear_302_78" x1="253" y1="157.333" x2="253" y2="189.333" gradientUnits="userSpaceOnUse">
<stop stop-color="#F7B186"/>
<stop offset="1" stop-color="#FFC299"/>
</linearGradient>
<clipPath id="clip0_302_78">
<rect x="153" width="200" height="200" rx="100" fill="white"/>
</clipPath>
</defs>
</svg>
