<svg width="353" height="200" viewBox="0 0 353 200" fill="none" xmlns="http://www.w3.org/2000/svg">
<g clip-path="url(#clip0_2_2)">
<path d="M246.03 200C305.108 200 353 155.228 353 100C353 44.7715 305.108 0 246.03 0C186.953 0 139.061 44.7715 139.061 100C139.061 155.228 186.953 200 246.03 200Z" fill="#F1F1F1"/>
<path d="M290.786 66.9309L250.792 133.614L266.027 136.576C286.215 132.397 303.102 106.555 290.786 66.9309Z" fill="#80362D"/>
<path d="M201.412 66.9309L241.407 133.614L226.17 136.576C205.982 132.397 189.096 106.555 201.412 66.9309Z" fill="#80362D"/>
<path d="M267.595 119.795H267.429V112.876H224.769V119.788C224.769 126.56 224.739 133.921 218.674 138.374V162.037C218.674 162.037 260.459 162.037 273.524 162.037V138.27C267.614 133.807 267.595 126.509 267.595 119.795Z" fill="#FFD7A3"/>
<path d="M270.476 151.389C271.587 151.684 272.59 151.841 273.522 151.918V138.271C267.612 133.807 267.593 126.509 267.593 119.795H267.607V112.876H233.909L224.768 115.838C230.862 122.504 249.527 145.834 270.476 151.389Z" fill="#FDC88E"/>
<path d="M288.759 74.3622C288.759 98.0869 264.491 127.688 246.099 127.688C227.707 127.688 203.438 98.0869 203.438 74.3622C203.438 50.6378 222.538 41.7738 246.099 41.7738C269.659 41.7738 288.759 50.6378 288.759 74.3622Z" fill="#FFE1B2"/>
<path d="M252.194 26.9611C250.48 26.9611 244.923 28.8313 240.38 30.4702L240.004 29.9236C240.004 29.9236 239.377 30.4027 238.293 31.2329C235.765 32.1658 233.91 32.886 233.91 32.886L234.623 34.0413C223.057 42.9007 204.161 66.13 201.788 68.4369C198.741 71.3993 208.67 145.241 212.557 102.412C215.374 71.3831 236.154 64.2607 255.242 59.8944C263.875 57.9193 263.367 46.7113 264.382 41.7738C265.397 36.8362 255.239 26.9611 252.194 26.9611Z" fill="#80362D"/>
<path d="M258.287 45.3287C263.873 64.832 275.554 86.3109 286.629 87.3667C292.524 87.9287 289.329 59.2467 289.329 59.2467C289.329 59.2467 280.886 44.588 279.871 44.0942C278.856 43.6002 271.237 38.0702 271.237 38.0702L255.239 35.8489L258.287 45.3287Z" fill="#80362D"/>
<path d="M284.221 77.1018C289.206 75.9907 292.472 78.3647 292.472 83.0271C292.472 89.1991 285.768 104.32 278.72 94.8773L284.221 77.1018Z" fill="#FFE1B2"/>
<path d="M282.664 31.7673V26.9662C282.664 25.3273 281.297 23.9989 279.612 23.9989H276.576C275.794 23.9989 275.098 24.3058 274.558 24.7749C268.401 20.9968 260.833 18.9434 252.194 18.3144V18.0785C252.194 16.4397 250.827 15.1111 249.142 15.1111H243.057C241.371 15.1111 240.004 16.4397 240.004 18.0785V18.3144C231.31 18.9492 223.768 21.0283 217.651 24.7831C217.11 24.3082 216.409 23.9989 215.622 23.9989H212.584C210.899 23.9989 209.532 25.3273 209.532 26.9662V31.7727C203.67 38.846 200.391 48.8818 200.391 62.5127V68.4378H291.806V62.5127C291.806 48.7998 288.49 38.7982 282.664 31.7673Z" fill="#FFBE1E"/>
<path d="M246.099 56.5869C226.589 56.5869 197.393 61.8922 197.393 68.4369H294.804C294.804 61.8927 265.608 56.5869 246.099 56.5869Z" fill="#FC9B28"/>
<path d="M291.806 142.23H290.791C279.291 142.23 273.503 139.275 270.541 135.03C267.572 143.127 257.768 149.08 246.099 149.08C234.43 149.08 224.626 143.128 221.658 135.03C218.696 139.274 212.908 142.23 201.407 142.23H200.392C181.88 142.23 166.873 156.82 166.873 174.818V191.112C166.873 196.02 170.965 200 176.014 200H316.183C321.232 200 325.326 196.02 325.326 191.112V174.818C325.326 156.82 310.319 142.23 291.806 142.23Z" fill="#FFBE1E"/>
<path d="M194.296 200H297.901V142.793C295.921 142.439 293.891 142.229 291.806 142.229H290.791C288.937 142.229 287.28 142.127 285.711 141.98V173.502C285.711 174.858 284.787 176.057 283.432 176.381C273.117 178.851 260.179 180.33 246.099 180.33C232.019 180.33 219.08 178.851 208.765 176.381C207.411 176.057 206.485 174.858 206.485 173.502V141.98C204.916 142.127 203.261 142.229 201.407 142.229H200.391C198.307 142.229 196.276 142.439 194.297 142.793L194.296 200Z" fill="#4F6E8D"/>
<path d="M106.97 200C166.047 200 213.939 155.228 213.939 100C213.939 44.7715 166.047 0 106.97 0C47.892 0 0 44.7715 0 100C0 155.228 47.892 200 106.97 200Z" fill="#F1F1F1"/>
<path d="M74.3252 128.356C80.9704 124.106 80.227 111.458 80.227 108.507H133.712C133.712 111.458 132.888 124.106 139.532 128.356L106.969 164.583L74.3252 128.356Z" fill="#FFD7A3"/>
<path d="M127.769 140.972L139.532 128.356C132.887 124.106 133.712 111.458 133.712 108.507H80.227C84.0644 119.465 109.446 138.267 127.769 140.972Z" fill="#FDC88E"/>
<path d="M148.569 70.1387C148.569 93.7738 134.867 123.264 106.97 123.264C79.0725 123.264 65.3708 93.7738 65.3708 70.1387C65.3708 46.5036 83.9957 37.6733 106.97 37.6733C129.944 37.6733 148.569 46.5036 148.569 70.1387Z" fill="#FFE1B2"/>
<path d="M175.311 200C180.235 200 184.226 196.036 184.226 191.146V162.682C184.226 149.695 174.038 135.832 161.586 131.874L142.996 125.966C132.994 133.562 118.701 143.924 106.97 143.924C95.2385 143.924 80.9454 133.562 70.944 125.966L52.3538 131.874C39.9018 135.831 29.7138 149.695 29.7138 162.681V191.146C29.7138 196.036 33.7047 200 38.6279 200H175.311Z" fill="#FFBE1E"/>
<path d="M56.4562 130.57V200H157.483V130.57L145.598 126.792V170.571C145.598 171.922 144.695 173.116 143.375 173.439C133.316 175.899 120.699 177.372 106.97 177.372C93.2405 177.372 80.6235 175.899 70.5651 173.439C69.2443 173.116 68.342 171.922 68.342 170.571V126.793L56.4562 130.57Z" fill="#4F6E8D"/>
<path d="M66.7995 73.0904C62.3455 71.9833 59.4276 74.3484 59.4276 78.9933C59.4276 85.142 65.4174 100.206 71.7144 90.7987C78.0113 81.3911 66.7995 73.0904 66.7995 73.0904Z" fill="#FFE1B2"/>
<path d="M146.465 73.0904C151.327 71.9833 154.512 74.3484 154.512 78.9933C154.512 85.142 147.974 100.206 141.1 90.7987C134.227 81.3911 146.465 73.0904 146.465 73.0904Z" fill="#FFE1B2"/>
<path d="M74.2845 60.7313C73.0463 63.9289 71.3134 78.4398 71.3134 78.4398L65.3704 75.4884L63.6993 55.9353L74.2845 60.7313Z" fill="#7E5449"/>
<path d="M139.655 60.7313C140.893 63.9289 142.626 78.4398 142.626 78.4398L148.569 75.4884L150.24 55.9353L139.655 60.7313Z" fill="#7E5449"/>
<path d="M142.626 27.7044V22.9216C142.626 21.2889 141.293 19.9653 139.65 19.9653H136.688C135.926 19.9653 135.248 20.2712 134.722 20.7385C128.718 16.9746 121.337 14.9289 112.912 14.3023V14.0673C112.912 12.4347 111.58 11.1111 109.936 11.1111H104.003C102.36 11.1111 101.027 12.4347 101.027 14.0673V14.3023C92.5485 14.9347 85.1945 17.006 79.2296 20.7466C78.7016 20.2734 78.018 19.9653 77.2509 19.9653H74.289C72.6455 19.9653 71.3129 21.2889 71.3129 22.9216V27.7098C65.5967 34.7564 62.3987 44.7544 62.3987 58.3338V64.2367H151.54V58.3338C151.54 44.6727 148.308 34.7089 142.626 27.7044Z" fill="#FFBE1E"/>
<path d="M106.969 52.4302C87.9455 52.4302 59.4754 57.7156 59.4754 64.2358H154.464C154.464 57.716 125.994 52.4302 106.969 52.4302Z" fill="#FC9B28"/>
</g>
<defs>
<clipPath id="clip0_2_2">
<rect width="353" height="200" fill="white"/>
</clipPath>
</defs>
</svg>
