<svg width="880" height="845" viewBox="0 0 880 845" fill="none" xmlns="http://www.w3.org/2000/svg">
<path d="M765.335 462.186C767.338 449.038 768.385 435.779 768.469 422.5C768.469 414.54 768.018 406.599 767.342 398.696C766.839 393.609 767.71 388.485 769.874 383.79C772.037 379.096 775.427 374.981 779.732 371.819L857.984 314.553C862.019 311.44 864.738 307.094 865.657 302.287C866.576 297.481 865.635 292.526 863.001 288.306L775.411 147.049C772.748 142.872 768.589 139.704 763.666 138.105C758.743 136.506 753.373 136.577 748.501 138.306L656.569 172.8C651.526 174.691 646.057 175.383 640.655 174.813C635.253 174.243 630.088 172.43 625.625 169.535C611.687 160.455 596.99 152.431 581.676 145.541C576.78 143.369 572.536 140.103 569.32 136.033C566.105 131.964 564.018 127.217 563.245 122.214L549.483 30.9317C548.441 26.2107 545.705 21.9613 541.725 18.8836C537.746 15.8058 532.76 14.0834 527.59 14H352.41C347.153 14.1038 342.098 15.906 338.108 19.0987C334.119 22.2915 331.443 26.6765 330.538 31.5044L316.755 122.921C316.017 127.869 313.983 132.571 310.832 136.613C307.682 140.654 303.513 143.911 298.692 146.094C283.36 153.022 268.613 161.024 254.58 170.032C250.102 172.94 244.92 174.768 239.498 175.351C234.076 175.934 228.583 175.254 223.513 173.372L131.56 138.86C126.686 137.132 121.314 137.064 116.391 138.667C111.468 140.27 107.31 143.441 104.65 147.621L17.0601 288.879C14.4509 293.07 13.5074 297.983 14.3948 302.758C15.2822 307.532 17.944 311.863 21.9137 314.992L100.124 372.258C104.402 375.385 107.777 379.454 109.948 384.099C112.118 388.744 113.014 393.82 112.555 398.868C111.798 406.656 111.368 414.483 111.368 422.443C111.368 430.403 111.818 438.344 112.555 446.304C113.07 451.383 112.216 456.502 110.07 461.195C107.924 465.889 104.555 470.009 100.268 473.181L22.0161 530.447C17.9809 533.56 15.2618 537.906 14.343 542.713C13.4242 547.519 14.3652 552.474 16.9986 556.694L104.589 697.951C107.252 702.128 111.411 705.296 116.334 706.895C121.257 708.494 126.627 708.423 131.499 706.694L223.431 672.2C228.474 670.309 233.943 669.617 239.345 670.187C244.747 670.757 249.912 672.57 254.375 675.465C268.313 684.545 283.01 692.569 298.324 699.459C303.22 701.631 307.464 704.897 310.68 708.967C313.895 713.036 315.982 717.783 316.755 722.786L330.517 814.068C331.559 818.789 334.295 823.039 338.275 826.116C342.254 829.194 347.24 830.917 352.41 831H527.59C532.847 830.896 537.902 829.094 541.892 825.901C545.881 822.708 548.557 818.323 549.462 813.496L563.245 722.079C563.983 717.131 566.017 712.429 569.168 708.387C572.318 704.346 576.487 701.089 581.308 698.906C596.64 691.978 611.387 683.976 625.42 674.968C629.898 672.06 635.08 670.232 640.502 669.649C645.924 669.066 651.417 669.746 656.487 671.628L748.44 706.14C753.314 707.868 758.686 707.936 763.609 706.333C768.532 704.73 772.69 701.559 775.35 697.378L862.94 556.121C865.569 551.9 866.508 546.947 865.589 542.141C864.671 537.336 861.954 532.989 857.923 529.874L765.335 462.186Z" stroke="white" stroke-width="27" stroke-linecap="round" stroke-linejoin="round"/>
<path d="M445.56 252.28C444.071 250.856 442.09 250.061 440.03 250.061C437.97 250.061 435.989 250.856 434.5 252.28L250.4 428.15C249.618 428.898 248.996 429.797 248.572 430.792C248.147 431.787 247.929 432.858 247.93 433.94L247.9 599C247.9 607.487 251.271 615.626 257.273 621.627C263.274 627.629 271.413 631 279.9 631H376C380.243 631 384.313 629.314 387.314 626.314C390.314 623.313 392 619.243 392 615V479C392 476.878 392.843 474.843 394.343 473.343C395.843 471.843 397.878 471 400 471H480C482.122 471 484.157 471.843 485.657 473.343C487.157 474.843 488 476.878 488 479V615C488 619.243 489.686 623.313 492.686 626.314C495.687 629.314 499.757 631 504 631H600.06C608.547 631 616.686 627.629 622.687 621.627C628.689 615.626 632.06 607.487 632.06 599V433.94C632.061 432.858 631.843 431.787 631.418 430.792C630.994 429.797 630.372 428.898 629.59 428.15L445.56 252.28Z" fill="white"/>
<path d="M674.91 395.15L600.11 323.59V215C600.11 210.757 598.424 206.687 595.424 203.686C592.423 200.686 588.353 199 584.11 199H536.11C531.867 199 527.797 200.686 524.796 203.686C521.796 206.687 520.11 210.757 520.11 215V247L462.19 191.62C456.77 186.14 448.71 183 440 183C431.32 183 423.28 186.14 417.86 191.63L205.16 395.13C198.94 401.13 198.16 411 203.82 417.5C205.241 419.141 206.982 420.475 208.935 421.422C210.888 422.368 213.014 422.908 215.182 423.007C217.351 423.106 219.517 422.763 221.548 421.999C223.58 421.234 225.435 420.064 227 418.56L434.5 220.28C435.989 218.856 437.97 218.061 440.03 218.061C442.09 218.061 444.071 218.856 445.56 220.28L653.08 418.56C656.137 421.491 660.231 423.091 664.466 423.009C668.7 422.926 672.73 421.168 675.67 418.12C681.81 411.76 681.3 401.26 674.91 395.15Z" fill="white"/>
</svg>
