<svg width="849" height="860" viewBox="0 0 849 860" fill="none" xmlns="http://www.w3.org/2000/svg">
<path d="M658.91 402.15L584.11 330.59V222C584.11 217.757 582.424 213.687 579.424 210.686C576.423 207.686 572.353 206 568.11 206H520.11C515.867 206 511.797 207.686 508.796 210.686C505.796 213.687 504.11 217.757 504.11 222V254L446.19 198.62C440.77 193.14 432.71 190 424 190C415.32 190 407.28 193.14 401.86 198.63L189.16 402.13C182.94 408.13 182.16 418 187.82 424.5C189.241 426.141 190.982 427.475 192.935 428.422C194.888 429.368 197.014 429.908 199.182 430.007C201.351 430.106 203.517 429.763 205.548 428.999C207.58 428.234 209.435 427.064 211 425.56L418.5 227.28C419.989 225.856 421.97 225.061 424.03 225.061C426.09 225.061 428.071 225.856 429.56 227.28L637.08 425.56C640.137 428.491 644.231 430.091 648.466 430.009C652.7 429.926 656.73 428.168 659.67 425.12C665.81 418.76 665.3 408.26 658.91 402.15Z" fill="black"/>
<path d="M738.616 430C738.536 443.458 737.533 456.895 735.615 470.22L824.294 538.82C828.155 541.977 830.757 546.382 831.637 551.252C832.516 556.122 831.617 561.142 829.099 565.421L745.207 708.579C742.659 712.816 738.677 716.03 733.962 717.655C729.247 719.279 724.101 719.21 719.433 717.459L631.363 682.482C626.506 680.575 621.245 679.886 616.052 680.477C610.859 681.067 605.896 682.92 601.607 685.868C588.166 694.996 574.042 703.106 559.357 710.127C554.74 712.34 550.747 715.641 547.729 719.737C544.712 723.833 542.764 728.598 542.057 733.613L528.856 826.26C527.989 831.153 525.426 835.597 521.605 838.833C517.784 842.068 512.942 843.895 507.907 844H340.123C335.171 843.916 330.396 842.17 326.584 839.051C322.773 835.932 320.152 831.625 319.154 826.84L305.973 734.329C305.233 729.259 303.234 724.448 300.155 720.324C297.075 716.199 293.009 712.889 288.32 710.688C273.652 703.705 259.576 695.573 246.227 686.37C241.953 683.437 237.006 681.599 231.832 681.022C226.658 680.444 221.42 681.146 216.589 683.062L128.538 718.02C123.872 719.773 118.728 719.845 114.014 718.224C109.299 716.603 105.315 713.393 102.764 709.16L18.872 566.001C16.3498 561.724 15.4485 556.703 16.3285 551.831C17.2086 546.96 19.8128 542.555 23.6776 539.4L98.6257 481.363C102.732 478.148 105.959 473.973 108.014 469.216C110.069 464.46 110.887 459.272 110.395 454.124C109.688 446.057 109.257 438.009 109.257 429.942C109.257 421.875 109.669 413.943 110.395 406.05C110.834 400.933 109.975 395.79 107.897 391.082C105.818 386.374 102.585 382.25 98.4884 379.082L23.5796 321.044C19.7775 317.874 17.2281 313.484 16.3781 308.645C15.5282 303.807 16.4319 298.827 18.9309 294.579L102.823 151.421C105.371 147.184 109.353 143.97 114.068 142.345C118.783 140.721 123.929 140.79 128.597 142.541L216.667 177.518C221.524 179.425 226.785 180.114 231.978 179.523C237.171 178.933 242.134 177.08 246.423 174.133C259.864 165.004 273.988 156.894 288.673 149.873C293.29 147.66 297.283 144.359 300.301 140.263C303.318 136.167 305.266 131.402 305.973 126.387L319.174 33.7401C320.041 28.8472 322.604 24.4031 326.425 21.1674C330.246 17.9317 335.088 16.1052 340.123 16H507.907C512.859 16.0845 517.634 17.8301 521.446 20.9493C525.257 24.0685 527.878 28.3751 528.876 33.1597L542.057 125.671C542.797 130.741 544.796 135.552 547.875 139.676C550.955 143.801 555.021 147.111 559.71 149.312C574.378 156.295 588.454 164.427 601.803 173.63C606.077 176.563 611.024 178.401 616.198 178.978C621.372 179.556 626.611 178.854 631.441 176.938L719.492 141.98C724.158 140.227 729.302 140.155 734.016 141.776C738.731 143.397 742.715 146.607 745.266 150.84L829.158 293.999C831.68 298.276 832.582 303.297 831.702 308.169C830.822 313.04 828.217 317.445 824.352 320.6L749.404 378.637C745.28 381.841 742.034 386.012 739.962 390.769C737.889 395.527 737.056 400.72 737.537 405.876C738.185 413.885 738.616 421.933 738.616 430Z" stroke="black" stroke-width="32" stroke-linecap="round" stroke-linejoin="round"/>
<path d="M429.56 259.28C428.071 257.856 426.09 257.061 424.03 257.061C421.97 257.061 419.989 257.856 418.5 259.28L234.4 435.15C233.618 435.898 232.996 436.797 232.572 437.792C232.147 438.787 231.929 439.858 231.93 440.94L231.9 606C231.9 614.487 235.271 622.626 241.273 628.627C247.274 634.629 255.413 638 263.9 638H360C364.243 638 368.313 636.314 371.314 633.314C374.314 630.313 376 626.243 376 622V486C376 483.878 376.843 481.843 378.343 480.343C379.843 478.843 381.878 478 384 478H464C466.122 478 468.157 478.843 469.657 480.343C471.157 481.843 472 483.878 472 486V622C472 626.243 473.686 630.313 476.686 633.314C479.687 636.314 483.757 638 488 638H584.06C592.547 638 600.686 634.629 606.687 628.627C612.689 622.626 616.06 614.487 616.06 606V440.94C616.061 439.858 615.843 438.787 615.418 437.792C614.994 436.797 614.372 435.898 613.59 435.15L429.56 259.28Z" fill="black"/>
</svg>
