<svg width="512" height="480" viewBox="0 0 512 480" fill="none" xmlns="http://www.w3.org/2000/svg">
<path d="M403.29 16H280.36C276.539 15.9972 272.871 17.5072 270.16 20.2L24.4 265.9C19.0201 271.306 15.9999 278.623 15.9999 286.25C15.9999 293.877 19.0201 301.194 24.4 306.6L141.4 423.6C146.808 428.981 154.126 432.001 161.755 432.001C169.384 432.001 176.702 428.981 182.11 423.6L427.8 178C430.493 175.289 432.003 171.621 432 167.8V44.8C432.018 41.0204 431.289 37.2744 429.854 33.7778C428.419 30.2811 426.306 27.1029 423.638 24.4261C420.969 21.7492 417.798 19.6267 414.306 18.1806C410.813 16.7345 407.07 15.9934 403.29 16Z" stroke="#1C7EED" stroke-width="32" stroke-linecap="round" stroke-linejoin="round"/>
<path d="M230 464L492 202C493.303 200.686 494.328 199.124 495.015 197.406C495.702 195.688 496.037 193.85 496 192V64" stroke="#1C7EED" stroke-width="32" stroke-linecap="round" stroke-linejoin="round"/>
<path d="M352 128C345.671 128 339.484 126.123 334.222 122.607C328.959 119.091 324.858 114.093 322.436 108.246C320.014 102.399 319.38 95.9645 320.615 89.7571C321.85 83.5497 324.897 77.8479 329.373 73.3726C333.848 68.8973 339.55 65.8496 345.757 64.6149C351.965 63.3802 358.399 64.0139 364.246 66.4359C370.093 68.8579 375.091 72.9594 378.607 78.2218C382.123 83.4841 384 89.671 384 96C384 104.487 380.629 112.626 374.627 118.627C368.626 124.629 360.487 128 352 128Z" fill="#1C7EED"/>
</svg>
