<svg width="448" height="256" viewBox="0 0 448 256" fill="none" xmlns="http://www.w3.org/2000/svg">
<path d="M16 240L137.37 118.63C140.342 115.658 143.87 113.3 147.752 111.691C151.635 110.083 155.797 109.255 160 109.255C164.203 109.255 168.365 110.083 172.248 111.691C176.13 113.3 179.658 115.658 182.63 118.63L233.37 169.37C236.342 172.342 239.87 174.7 243.752 176.309C247.635 177.917 251.797 178.745 256 178.745C260.203 178.745 264.365 177.917 268.248 176.309C272.13 174.7 275.658 172.342 278.63 169.37L416 32" stroke="#742AFF" stroke-width="32" stroke-linecap="round" stroke-linejoin="round"/>
<path d="M320 16H432V128" stroke="#742AFF" stroke-width="32" stroke-linecap="round" stroke-linejoin="round"/>
</svg>
