<svg width="666" height="666" viewBox="0 0 666 666" fill="none" xmlns="http://www.w3.org/2000/svg">
<path d="M216.333 349.667L283 416.333L449.667 249.667" stroke="#1C7EED" stroke-width="50" stroke-linecap="round" stroke-linejoin="round"/>
<path d="M259.044 62.6759C277.84 46.6579 287.237 38.6489 297.063 33.9529C319.79 23.0902 346.21 23.0902 368.937 33.9529C378.763 38.6489 388.16 46.6579 406.957 62.6759C414.437 69.0509 418.177 72.2379 422.173 74.9159C431.33 81.0529 441.613 85.3129 452.427 87.4479C457.147 88.3799 462.043 88.7709 471.843 89.5519C496.46 91.5169 508.767 92.4989 519.037 96.1259C542.787 104.515 561.47 123.197 569.86 146.948C573.487 157.217 574.467 169.525 576.433 194.142C577.213 203.94 577.603 208.838 578.537 213.556C580.67 224.371 584.93 234.655 591.07 243.812C593.747 247.807 596.933 251.547 603.31 259.028C619.327 277.823 627.337 287.223 632.033 297.047C642.893 319.773 642.893 346.193 632.033 368.92C627.337 378.747 619.327 388.143 603.31 406.94C596.933 414.42 593.747 418.16 591.07 422.157C584.93 431.313 580.67 441.597 578.537 452.413C577.603 457.13 577.213 462.03 576.433 471.827C574.467 496.443 573.487 508.75 569.86 519.02C561.47 542.77 542.787 561.453 519.037 569.843C508.767 573.47 496.46 574.45 471.843 576.417C462.043 577.197 457.147 577.59 452.427 578.52C441.613 580.657 431.33 584.913 422.173 591.053C418.177 593.73 414.437 596.917 406.957 603.293C388.16 619.31 378.763 627.32 368.937 632.017C346.21 642.877 319.79 642.877 297.063 632.017C287.237 627.32 277.84 619.31 259.044 603.293C251.564 596.917 247.823 593.73 243.828 591.053C234.671 584.913 224.388 580.657 213.573 578.52C208.855 577.59 203.956 577.197 194.158 576.417C169.542 574.45 157.233 573.47 146.964 569.843C123.213 561.453 104.531 542.77 96.142 519.02C92.515 508.75 91.533 496.443 89.569 471.827C88.787 462.03 88.396 457.13 87.464 452.413C85.329 441.597 81.07 431.313 74.932 422.157C72.255 418.16 69.067 414.42 62.692 406.94C46.674 388.143 38.666 378.747 33.969 368.92C23.1067 346.193 23.1067 319.773 33.969 297.047C38.666 287.22 46.674 277.823 62.692 259.028C69.067 251.547 72.255 247.807 74.932 243.812C81.07 234.655 85.329 224.371 87.464 213.556C88.396 208.838 88.787 203.94 89.569 194.142C91.533 169.525 92.515 157.217 96.142 146.948C104.531 123.197 123.213 104.515 146.964 96.1259C157.233 92.4989 169.542 91.5169 194.158 89.5519C203.956 88.7709 208.855 88.3799 213.573 87.4479C224.388 85.3129 234.671 81.0529 243.828 74.9159C247.823 72.2379 251.564 69.0509 259.044 62.6759Z" stroke="#1C7EED" stroke-width="50"/>
</svg>
